<svg xmlns="http://www.w3.org/2000/svg" xmlns:xlink="http://www.w3.org/1999/xlink" width="1024" zoomAndPan="magnify" viewBox="0 0 768 767.999994" height="1024" preserveAspectRatio="xMidYMid meet" version="1.0"><defs><clipPath id="2395afebe0"><path d="M 95 103.898438 L 673 103.898438 L 673 550 L 95 550 Z M 95 103.898438 " clip-rule="nonzero"/></clipPath><clipPath id="1a49d524c0"><path d="M 241 567 L 339 567 L 339 664.148438 L 241 664.148438 Z M 241 567 " clip-rule="nonzero"/></clipPath><clipPath id="70af4c32a5"><path d="M 516 567 L 613 567 L 613 664.148438 L 516 664.148438 Z M 516 567 " clip-rule="nonzero"/></clipPath></defs><g clip-path="url(#2395afebe0)"><path fill="#ffffff" d="M 666.867188 196.570312 C 662.285156 191.015625 655.457031 187.796875 648.242188 187.796875 L 236.101562 187.796875 L 216.265625 121.175781 C 213.214844 110.929688 203.804688 103.910156 193.117188 103.910156 L 119.375 103.910156 C 106.03125 103.910156 95.214844 114.726562 95.214844 128.066406 C 95.214844 141.402344 106.03125 152.210938 119.375 152.210938 L 175.097656 152.210938 L 265.375 455.382812 C 255.589844 473.320312 246.308594 499 256.832031 520.515625 C 266.152344 539.558594 287.207031 549.21875 319.40625 549.21875 C 319.988281 549.21875 320.574219 549.195312 321.15625 549.136719 C 323.25 548.945312 531.351562 529.871094 603.101562 533.933594 C 613.5625 534.492188 622.625 526.488281 623.21875 515.972656 C 623.816406 505.460938 615.769531 496.453125 605.25 495.871094 C 532.402344 491.761719 335.679688 509.519531 318.5625 511.085938 C 300.902344 510.96875 292.730469 507.085938 291.097656 503.765625 C 289.277344 500.0625 290.570312 493.066406 293.632812 485.148438 C 294.144531 485.121094 294.652344 485.113281 295.179688 485.050781 L 610.457031 446.921875 C 620.875 445.660156 629.289062 437.8125 631.273438 427.515625 L 671.964844 216.527344 C 673.320312 209.445312 671.457031 202.128906 666.867188 196.570312 Z M 491.867188 313.722656 L 392.710938 313.722656 L 392.710938 236.097656 L 491.867188 236.097656 Z M 280.417969 336.597656 L 369.828125 336.597656 L 369.828125 427.371094 L 309.609375 434.65625 Z M 392.710938 336.597656 L 491.867188 336.597656 L 491.867188 412.609375 L 392.710938 424.601562 Z M 604.023438 313.722656 L 514.753906 313.722656 L 514.753906 236.097656 L 618.992188 236.097656 Z M 369.828125 236.097656 L 369.828125 313.722656 L 273.601562 313.722656 L 250.488281 236.097656 Z M 514.753906 409.839844 L 514.753906 336.597656 L 599.609375 336.597656 L 587.171875 401.078125 Z M 514.753906 409.839844 " fill-opacity="1" fill-rule="nonzero"/></g><g clip-path="url(#1a49d524c0)"><path fill="#ffffff" d="M 338.042969 616.089844 C 338.042969 617.667969 337.964844 619.246094 337.808594 620.816406 C 337.65625 622.390625 337.421875 623.953125 337.117188 625.503906 C 336.808594 627.050781 336.421875 628.582031 335.964844 630.097656 C 335.503906 631.609375 334.972656 633.09375 334.367188 634.554688 C 333.765625 636.015625 333.089844 637.441406 332.34375 638.835938 C 331.597656 640.230469 330.785156 641.582031 329.910156 642.898438 C 329.03125 644.210938 328.089844 645.480469 327.085938 646.699219 C 326.085938 647.921875 325.023438 649.089844 323.90625 650.210938 C 322.789062 651.328125 321.617188 652.386719 320.398438 653.390625 C 319.175781 654.390625 317.90625 655.332031 316.59375 656.210938 C 315.277344 657.089844 313.925781 657.898438 312.53125 658.644531 C 311.136719 659.390625 309.707031 660.0625 308.25 660.667969 C 306.789062 661.273438 305.300781 661.804688 303.789062 662.265625 C 302.277344 662.722656 300.746094 663.105469 299.195312 663.414062 C 297.644531 663.722656 296.082031 663.957031 294.507812 664.109375 C 292.9375 664.265625 291.359375 664.34375 289.777344 664.34375 C 288.199219 664.34375 286.621094 664.265625 285.046875 664.109375 C 283.472656 663.957031 281.914062 663.722656 280.363281 663.414062 C 278.8125 663.105469 277.28125 662.722656 275.769531 662.265625 C 274.253906 661.804688 272.769531 661.273438 271.308594 660.667969 C 269.847656 660.0625 268.421875 659.390625 267.027344 658.644531 C 265.632812 657.898438 264.277344 657.089844 262.964844 656.210938 C 261.648438 655.332031 260.382812 654.390625 259.160156 653.390625 C 257.9375 652.386719 256.769531 651.328125 255.648438 650.210938 C 254.53125 649.089844 253.472656 647.921875 252.46875 646.699219 C 251.464844 645.480469 250.527344 644.210938 249.648438 642.898438 C 248.769531 641.582031 247.957031 640.230469 247.210938 638.835938 C 246.46875 637.441406 245.792969 636.015625 245.1875 634.554688 C 244.582031 633.09375 244.050781 631.609375 243.59375 630.097656 C 243.132812 628.582031 242.75 627.050781 242.441406 625.503906 C 242.132812 623.953125 241.902344 622.390625 241.746094 620.816406 C 241.589844 619.246094 241.515625 617.667969 241.515625 616.089844 C 241.515625 614.507812 241.589844 612.933594 241.746094 611.359375 C 241.902344 609.785156 242.132812 608.226562 242.441406 606.675781 C 242.75 605.125 243.132812 603.59375 243.59375 602.082031 C 244.050781 600.570312 244.582031 599.082031 245.1875 597.621094 C 245.792969 596.164062 246.46875 594.734375 247.210938 593.34375 C 247.957031 591.949219 248.769531 590.59375 249.648438 589.28125 C 250.527344 587.964844 251.464844 586.699219 252.46875 585.476562 C 253.472656 584.253906 254.53125 583.085938 255.648438 581.96875 C 256.769531 580.851562 257.9375 579.789062 259.160156 578.789062 C 260.382812 577.785156 261.648438 576.84375 262.964844 575.96875 C 264.277344 575.089844 265.632812 574.277344 267.027344 573.53125 C 268.421875 572.789062 269.847656 572.113281 271.308594 571.507812 C 272.769531 570.902344 274.253906 570.371094 275.769531 569.914062 C 277.28125 569.453125 278.8125 569.070312 280.363281 568.761719 C 281.914062 568.453125 283.472656 568.222656 285.046875 568.066406 C 286.621094 567.914062 288.199219 567.835938 289.777344 567.835938 C 291.359375 567.835938 292.9375 567.914062 294.507812 568.066406 C 296.082031 568.222656 297.644531 568.453125 299.195312 568.761719 C 300.746094 569.070312 302.277344 569.453125 303.789062 569.914062 C 305.300781 570.371094 306.789062 570.902344 308.25 571.507812 C 309.707031 572.113281 311.136719 572.789062 312.53125 573.53125 C 313.925781 574.277344 315.277344 575.089844 316.59375 575.96875 C 317.90625 576.84375 319.175781 577.785156 320.398438 578.789062 C 321.617188 579.789062 322.789062 580.851562 323.90625 581.96875 C 325.023438 583.085938 326.085938 584.253906 327.085938 585.476562 C 328.089844 586.699219 329.03125 587.964844 329.910156 589.28125 C 330.785156 590.59375 331.597656 591.949219 332.34375 593.34375 C 333.089844 594.734375 333.765625 596.164062 334.367188 597.621094 C 334.972656 599.082031 335.503906 600.570312 335.964844 602.082031 C 336.421875 603.59375 336.808594 605.125 337.117188 606.675781 C 337.421875 608.226562 337.65625 609.785156 337.808594 611.359375 C 337.964844 612.933594 338.042969 614.507812 338.042969 616.089844 Z M 338.042969 616.089844 " fill-opacity="1" fill-rule="nonzero"/></g><g clip-path="url(#70af4c32a5)"><path fill="#ffffff" d="M 612.644531 616.089844 C 612.644531 617.667969 612.566406 619.246094 612.410156 620.816406 C 612.253906 622.390625 612.023438 623.953125 611.714844 625.503906 C 611.40625 627.050781 611.023438 628.582031 610.566406 630.097656 C 610.105469 631.609375 609.574219 633.09375 608.96875 634.554688 C 608.363281 636.015625 607.6875 637.441406 606.945312 638.835938 C 606.199219 640.230469 605.386719 641.582031 604.507812 642.898438 C 603.628906 644.210938 602.691406 645.480469 601.6875 646.699219 C 600.683594 647.921875 599.625 649.089844 598.507812 650.210938 C 597.390625 651.328125 596.21875 652.386719 594.996094 653.390625 C 593.773438 654.390625 592.507812 655.332031 591.191406 656.210938 C 589.878906 657.089844 588.523438 657.898438 587.128906 658.644531 C 585.734375 659.390625 584.308594 660.0625 582.847656 660.667969 C 581.386719 661.273438 579.902344 661.804688 578.390625 662.265625 C 576.875 662.722656 575.34375 663.105469 573.792969 663.414062 C 572.246094 663.722656 570.683594 663.957031 569.109375 664.109375 C 567.535156 664.265625 565.960938 664.34375 564.378906 664.34375 C 562.796875 664.34375 561.222656 664.265625 559.648438 664.109375 C 558.074219 663.957031 556.511719 663.722656 554.960938 663.414062 C 553.414062 663.105469 551.878906 662.722656 550.367188 662.265625 C 548.855469 661.804688 547.367188 661.273438 545.910156 660.667969 C 544.449219 660.0625 543.019531 659.390625 541.625 658.644531 C 540.234375 657.898438 538.878906 657.089844 537.5625 656.210938 C 536.25 655.332031 534.980469 654.390625 533.761719 653.390625 C 532.539062 652.386719 531.367188 651.328125 530.25 650.210938 C 529.132812 649.089844 528.074219 647.921875 527.070312 646.699219 C 526.066406 645.480469 525.125 644.210938 524.25 642.898438 C 523.371094 641.582031 522.558594 640.230469 521.8125 638.835938 C 521.066406 637.441406 520.394531 636.015625 519.789062 634.554688 C 519.183594 633.09375 518.652344 631.609375 518.191406 630.097656 C 517.734375 628.582031 517.351562 627.050781 517.042969 625.503906 C 516.734375 623.953125 516.5 622.390625 516.347656 620.816406 C 516.191406 619.246094 516.113281 617.667969 516.113281 616.089844 C 516.113281 614.507812 516.191406 612.933594 516.347656 611.359375 C 516.5 609.785156 516.734375 608.226562 517.042969 606.675781 C 517.351562 605.125 517.734375 603.59375 518.191406 602.082031 C 518.652344 600.570312 519.183594 599.082031 519.789062 597.621094 C 520.394531 596.164062 521.066406 594.734375 521.8125 593.34375 C 522.558594 591.949219 523.371094 590.59375 524.25 589.28125 C 525.125 587.964844 526.066406 586.699219 527.070312 585.476562 C 528.074219 584.253906 529.132812 583.085938 530.25 581.96875 C 531.367188 580.851562 532.539062 579.789062 533.761719 578.789062 C 534.980469 577.785156 536.25 576.84375 537.5625 575.96875 C 538.878906 575.089844 540.234375 574.277344 541.625 573.53125 C 543.019531 572.789062 544.449219 572.113281 545.910156 571.507812 C 547.367188 570.902344 548.855469 570.371094 550.367188 569.914062 C 551.878906 569.453125 553.414062 569.070312 554.960938 568.761719 C 556.511719 568.453125 558.074219 568.222656 559.648438 568.066406 C 561.222656 567.914062 562.796875 567.835938 564.378906 567.835938 C 565.960938 567.835938 567.535156 567.914062 569.109375 568.066406 C 570.683594 568.222656 572.246094 568.453125 573.792969 568.761719 C 575.34375 569.070312 576.875 569.453125 578.390625 569.914062 C 579.902344 570.371094 581.386719 570.902344 582.847656 571.507812 C 584.308594 572.113281 585.734375 572.789062 587.128906 573.53125 C 588.523438 574.277344 589.878906 575.089844 591.191406 575.96875 C 592.507812 576.84375 593.773438 577.785156 594.996094 578.789062 C 596.21875 579.789062 597.390625 580.851562 598.507812 581.96875 C 599.625 583.085938 600.683594 584.253906 601.6875 585.476562 C 602.691406 586.699219 603.628906 587.964844 604.507812 589.28125 C 605.386719 590.59375 606.199219 591.949219 606.945312 593.34375 C 607.6875 594.734375 608.363281 596.164062 608.96875 597.621094 C 609.574219 599.082031 610.105469 600.570312 610.566406 602.082031 C 611.023438 603.59375 611.40625 605.125 611.714844 606.675781 C 612.023438 608.226562 612.253906 609.785156 612.410156 611.359375 C 612.566406 612.933594 612.644531 614.507812 612.644531 616.089844 Z M 612.644531 616.089844 " fill-opacity="1" fill-rule="nonzero"/></g></svg>